<?xml version="1.0" standalone="no"?>
<!DOCTYPE svg PUBLIC "-//W3C//DTD SVG 20010904//EN"
 "http://www.w3.org/TR/2001/REC-SVG-20010904/DTD/svg10.dtd">
<svg version="1.0" xmlns="http://www.w3.org/2000/svg"
 width="784.000000pt" height="784.000000pt" viewBox="0 0 784.000000 784.000000"
 preserveAspectRatio="xMidYMid meet">

<g transform="translate(0.000000,784.000000) scale(0.100000,-0.100000)"
fill="#000000" stroke="none">
<path d="M5111 4979 c-84 -88 -152 -161 -150 -162 2 -2 22 -17 44 -33 22 -17
46 -34 52 -38 9 -5 44 55 113 194 55 110 99 200 98 200 -2 0 -72 -73 -157
-161z"/>
<path d="M80 4490 c0 -6 38 -10 95 -10 57 0 95 4 95 10 0 6 -38 10 -95 10 -57
0 -95 -4 -95 -10z"/>
<path d="M660 4490 c0 -6 70 -10 190 -10 120 0 190 4 190 10 0 6 -70 10 -190
10 -120 0 -190 -4 -190 -10z"/>
<path d="M1430 4490 c0 -6 68 -10 185 -10 117 0 185 4 185 10 0 6 -68 10 -185
10 -117 0 -185 -4 -185 -10z"/>
<path d="M2200 4490 c0 -6 68 -10 185 -10 117 0 185 4 185 10 0 6 -68 10 -185
10 -117 0 -185 -4 -185 -10z"/>
<path d="M2960 4490 c0 -6 70 -10 190 -10 120 0 190 4 190 10 0 6 -70 10 -190
10 -120 0 -190 -4 -190 -10z"/>
<path d="M3730 4490 c0 -6 70 -10 190 -10 120 0 190 4 190 10 0 6 -70 10 -190
10 -120 0 -190 -4 -190 -10z"/>
<path d="M4500 4490 c0 -5 15 -10 34 -10 19 0 38 5 41 10 4 6 -10 10 -34 10
-23 0 -41 -4 -41 -10z"/>
<path d="M5270 4490 c0 -6 68 -10 185 -10 117 0 185 4 185 10 0 6 -68 10 -185
10 -117 0 -185 -4 -185 -10z"/>
<path d="M6040 4490 c0 -6 68 -10 185 -10 117 0 185 4 185 10 0 6 -68 10 -185
10 -117 0 -185 -4 -185 -10z"/>
<path d="M6800 4490 c0 -6 70 -10 190 -10 120 0 190 4 190 10 0 6 -70 10 -190
10 -120 0 -190 -4 -190 -10z"/>
<path d="M7570 4490 c0 -6 38 -10 95 -10 57 0 95 4 95 10 0 6 -38 10 -95 10
-57 0 -95 -4 -95 -10z"/>
<path d="M80 3550 c0 -7 630 -10 1869 -10 1236 0 1872 3 1876 10 4 7 -622 10
-1869 10 -1244 0 -1876 -3 -1876 -10z"/>
<path d="M4395 3550 c-4 -7 558 -10 1679 -10 1117 0 1686 3 1686 10 0 14
-3356 14 -3365 0z"/>
<path d="M80 2510 c0 -7 498 -10 1474 -10 973 0 1477 3 1481 10 4 7 -490 10
-1474 10 -981 0 -1481 -3 -1481 -10z"/>
<path d="M3605 2510 c-4 -7 690 -10 2074 -10 1381 0 2081 3 2081 10 0 14
-4146 14 -4155 0z"/>
<path d="M80 1410 c0 -7 415 -10 1226 -10 814 0 1223 3 1219 10 -4 7 -423 10
-1226 10 -806 0 -1219 -3 -1219 -10z"/>
<path d="M2760 1410 c-10 -6 870 -10 2493 -10 1665 0 2507 3 2507 10 0 14
-4979 14 -5000 0z"/>
</g>
</svg>
